<svg height='100px' width='100px'  fill="#0000ff" xmlns="http://www.w3.org/2000/svg" xmlns:xlink="http://www.w3.org/1999/xlink" version="1.1" x="0px" y="0px" viewBox="0 0 24 24" enable-background="new 0 0 24 24" xml:space="preserve"><g><path d="M11.978,23.952c-0.196,0-0.374-0.114-0.455-0.293l-0.681-1.48c-0.502-1.087-0.972-2.104-1.406-3.134   c-0.291-0.691-0.658-1.076-1.311-1.372c-3.923-1.779-6.054-6.016-5.182-10.304c0.822-4.046,4.563-7.19,8.698-7.316l0.298-0.004   c4.254,0,7.867,2.758,8.991,6.862c1.184,4.322-1.007,8.957-5.097,10.781c-0.681,0.304-1.053,0.68-1.326,1.343   c-0.432,1.048-0.905,2.076-1.407,3.166c-0.217,0.471-0.439,0.954-0.668,1.457C12.353,23.836,12.174,23.952,11.978,23.952   C11.978,23.952,11.978,23.952,11.978,23.952z M11.939,1.048l-0.267,0.004C7.987,1.164,4.656,3.965,3.924,7.568   c-0.779,3.828,1.119,7.608,4.614,9.194c0.874,0.396,1.435,0.98,1.819,1.894c0.431,1.021,0.896,2.027,1.393,3.104l0.227,0.492   c0.072-0.158,0.145-0.314,0.216-0.469c0.497-1.08,0.967-2.101,1.392-3.129c0.368-0.893,0.937-1.471,1.842-1.876   c3.644-1.624,5.595-5.753,4.54-9.604C18.963,3.51,15.737,1.048,11.939,1.048z"></path><g><path d="M8.284,6.805H7.386c-0.166,0-0.3-0.134-0.3-0.3s0.134-0.3,0.3-0.3h0.898c0.166,0,0.3,0.134,0.3,0.3    S8.45,6.805,8.284,6.805z"></path><path d="M16.414,6.805h-0.729c-0.166,0-0.3-0.134-0.3-0.3s0.134-0.3,0.3-0.3h0.729c0.166,0,0.3,0.134,0.3,0.3    S16.58,6.805,16.414,6.805z"></path><path d="M9.412,13.958H7.887c-0.166,0-0.3-0.134-0.3-0.3v-0.923c0-0.166,0.134-0.3,0.3-0.3h1.525c0.166,0,0.3,0.134,0.3,0.3v0.923    C9.712,13.825,9.578,13.958,9.412,13.958z M8.186,13.359h0.926v-0.323H8.186V13.359z"></path><path d="M16.124,13.958h-1.526c-0.166,0-0.3-0.134-0.3-0.3v-0.923c0-0.166,0.134-0.3,0.3-0.3h1.526c0.166,0,0.3,0.134,0.3,0.3    v0.923C16.424,13.825,16.29,13.958,16.124,13.958z M14.897,13.359h0.927v-0.323h-0.927V13.359z"></path><circle cx="9.249" cy="11.672" r="0.53"></circle><circle cx="14.762" cy="11.672" r="0.53"></circle><path d="M12.01,13.036L12.01,13.036c-4.183-0.004-4.341-0.042-4.416-0.06c-0.404-0.095-0.509-0.457-0.508-0.635v-6.23    c0.035-1.165,0.793-1.882,2.079-1.976c0.421-0.031,1.136-0.047,2.124-0.047l0.723,0.003l0.718-0.003    c0.988,0,1.703,0.016,2.124,0.047c1.287,0.094,2.045,0.811,2.079,1.967v6.241c0.001,0.176-0.104,0.538-0.509,0.633    C16.35,12.994,16.191,13.032,12.01,13.036z M11.289,4.689c-0.974,0-1.674,0.015-2.081,0.044C8.224,4.805,7.711,5.272,7.686,6.12    v6.224c0.12,0.06,0.707,0.089,4.324,0.093c3.616-0.004,4.203-0.033,4.287-0.046l0.036-6.279c-0.025-0.839-0.537-1.306-1.522-1.378    c-0.407-0.029-1.107-0.044-2.081-0.044l-0.718,0.002L11.289,4.689z"></path><path d="M15.686,10.918H8.333c-0.166,0-0.3-0.134-0.3-0.3V6.505c0-0.166,0.134-0.3,0.3-0.3h7.353c0.166,0,0.3,0.134,0.3,0.3v4.113    C15.985,10.785,15.852,10.918,15.686,10.918z M8.633,10.319h6.753V6.805H8.633V10.319z"></path><path d="M12.01,10.918c-0.166,0-0.3-0.134-0.3-0.3V6.587c0-0.166,0.134-0.3,0.3-0.3s0.3,0.134,0.3,0.3v4.031    C12.31,10.785,12.176,10.918,12.01,10.918z"></path><path d="M7.378,9.35c-0.007,0-0.014,0-0.021-0.001c-0.51-0.035-0.99-0.141-1.042-0.662C6.278,8.33,6.311,7.317,6.313,7.274    c0.006-0.162,0.138-0.29,0.3-0.29h0.765c0.166,0,0.3,0.134,0.3,0.3s-0.134,0.3-0.3,0.3H6.905C6.896,7.936,6.892,8.429,6.912,8.627    C6.911,8.652,6.99,8.722,7.399,8.751c0.165,0.011,0.289,0.154,0.277,0.32C7.666,9.229,7.534,9.35,7.378,9.35z"></path><path d="M16.633,9.35c-0.156,0-0.288-0.121-0.299-0.278c-0.012-0.166,0.112-0.31,0.277-0.32c0.409-0.029,0.488-0.1,0.491-0.103    c0.018-0.215,0.011-0.712,0.003-1.065h-0.473c-0.166,0-0.3-0.134-0.3-0.3s0.134-0.3,0.3-0.3h0.765c0.162,0,0.295,0.128,0.3,0.29    c0.001,0.043,0.034,1.055-0.001,1.413c-0.052,0.521-0.532,0.627-1.042,0.662C16.646,9.35,16.64,9.35,16.633,9.35z"></path><path d="M9.647,6.755c-0.166,0-0.3-0.134-0.3-0.3V4.469c0-0.166,0.134-0.3,0.3-0.3s0.3,0.134,0.3,0.3v1.986    C9.947,6.622,9.813,6.755,9.647,6.755z"></path><path d="M14.363,6.74c-0.166,0-0.3-0.134-0.3-0.3V4.454c0-0.166,0.134-0.3,0.3-0.3s0.3,0.134,0.3,0.3V6.44    C14.663,6.606,14.529,6.74,14.363,6.74z"></path><path d="M13.162,5.762c-0.001,0-0.001,0-0.002,0l-2.313-0.016c-0.166-0.001-0.299-0.136-0.298-0.302    c0.001-0.167,0.146-0.263,0.302-0.298l2.313,0.016c0.166,0.001,0.299,0.136,0.298,0.302C13.461,5.629,13.327,5.762,13.162,5.762z"></path></g></g>
</svg>